<?xml version="1.0" encoding="UTF-8"?>
<!-- Generator: Adobe Illustrator 15.0.2, SVG Export Plug-In . SVG Version: 6.00 Build 0)  -->
<!DOCTYPE svg PUBLIC "-//W3C//DTD SVG 1.1//EN" "http://www.w3.org/Graphics/SVG/1.1/DTD/svg11.dtd">
<svg xmlns="http://www.w3.org/2000/svg" xmlns:xlink="http://www.w3.org/1999/xlink" version="1.1" id="Layer_1" x="0px" y="0px" width="512px" height="2048px" viewBox="0 0 512 2048" enable-background="new 0 0 512 2048" xml:space="preserve">
<path id="activity-header" d="M256,512c141.438,0,256-114.562,256-256S397.438,0,256,0S0,114.562,0,256S114.562,512,256,512z M256,768  C114.562,768,0,882.562,0,1024s114.562,256,256,256s256-114.562,256-256S397.438,768,256,768z M256,1536  c-141.438,0-256,114.562-256,256s114.562,256,256,256s256-114.562,256-256S397.438,1536,256,1536z" fill="#C0C0C0"/>
</svg>
